<svg width="20" height="17" viewBox="0 0 20 17" fill="none" xmlns="http://www.w3.org/2000/svg">
<path d="M2.17953 8.5L1.33101 7.65147C0.862378 8.1201 0.862378 8.8799 1.33101 9.34853L2.17953 8.5ZM18.5129 9.7C19.1756 9.7 19.7129 9.16274 19.7129 8.5C19.7129 7.83726 19.1756 7.3 18.5129 7.3V9.7ZM8.33101 16.3485C8.79964 16.8172 9.55943 16.8172 10.0281 16.3485C10.4967 15.8799 10.4967 15.1201 10.0281 14.6515L8.33101 16.3485ZM10.0281 2.34853C10.4967 1.8799 10.4967 1.1201 10.0281 0.651472C9.55943 0.182843 8.79964 0.182843 8.33101 0.651472L10.0281 2.34853ZM2.17953 9.7H18.5129V7.3H2.17953V9.7ZM1.33101 9.34853L8.33101 16.3485L10.0281 14.6515L3.02806 7.65147L1.33101 9.34853ZM3.02806 9.34853L10.0281 2.34853L8.33101 0.651472L1.33101 7.65147L3.02806 9.34853Z" fill="#1B1625"/>
</svg>
