<svg width="310" height="189" viewBox="0 0 310 189" fill="none" xmlns="http://www.w3.org/2000/svg">
<line y1="188.5" x2="305" y2="188.5" stroke="#FFF3E4" stroke-dasharray="2 2"/>
<line y1="138.5" x2="305" y2="138.5" stroke="#FFF3E4" stroke-dasharray="2 2"/>
<line y1="88.5" x2="305" y2="88.5" stroke="#FFF3E4" stroke-dasharray="2 2"/>
<line y1="39.5" x2="305" y2="39.5" stroke="#FFF3E4" stroke-dasharray="2 2"/>
<line y1="0.5" x2="305" y2="0.5" stroke="#FFF3E4" stroke-dasharray="2 2"/>
<line x1="2.5" y1="1" x2="2.49998" y2="189" stroke="#FFF3E4" stroke-dasharray="2 2"/>
<line x1="309.5" y1="1" x2="309.5" y2="189" stroke="#FFF3E4" stroke-dasharray="2 2"/>
<line x1="26.5" y1="1" x2="26.5" y2="189" stroke="#FFF3E4" stroke-dasharray="2 2"/>
<line x1="49.5" y1="1" x2="49.5" y2="189" stroke="#FFF3E4" stroke-dasharray="2 2"/>
<line x1="73.5" y1="1" x2="73.5" y2="189" stroke="#FFF3E4" stroke-dasharray="2 2"/>
<line x1="96.5" y1="1" x2="96.5" y2="189" stroke="#FFF3E4" stroke-dasharray="2 2"/>
<line x1="120.5" y1="1" x2="120.5" y2="189" stroke="#FFF3E4" stroke-dasharray="2 2"/>
<line x1="144.5" y1="1" x2="144.5" y2="189" stroke="#FFF3E4" stroke-dasharray="2 2"/>
<line x1="167.5" y1="1" x2="167.5" y2="189" stroke="#FFF3E4" stroke-dasharray="2 2"/>
<line x1="191.5" y1="1" x2="191.5" y2="189" stroke="#FFF3E4" stroke-dasharray="2 2"/>
<line x1="215.5" y1="1" x2="215.5" y2="189" stroke="#FFF3E4" stroke-dasharray="2 2"/>
<line x1="238.5" y1="1" x2="238.5" y2="189" stroke="#FFF3E4" stroke-dasharray="2 2"/>
<line x1="262.5" y1="1" x2="262.5" y2="189" stroke="#FFF3E4" stroke-dasharray="2 2"/>
<line x1="285.5" y1="1" x2="285.5" y2="189" stroke="#FFF3E4" stroke-dasharray="2 2"/>
</svg>
