<svg width="375" height="169" viewBox="0 0 375 169" fill="none" xmlns="http://www.w3.org/2000/svg">
<path fill-rule="evenodd" clip-rule="evenodd" d="M21 -415.97C-39.4145 -404.629 -81.5916 -302.31 -81.996 -245.226C-82.3106 -200.8 -63.7539 -160.258 -46.7551 -123.12C-24.8986 -75.3693 -5.61777 -33.2455 -32.337 4.27264C-79.837 70.9705 61.8621 181.111 138.231 85.7918C204.126 3.54536 236.696 24.6997 268.54 45.3816C282.604 54.5165 296.527 63.5593 313.117 63.5593C339.657 63.5593 385.283 12.0349 394.391 -46.8194H396V-417H21V-415.97Z" fill="#FFF3E4"/>
<circle cx="1.62796" cy="1.62796" r="1.62796" transform="matrix(1 0 0 -1 210 35.9999)" fill="#FFF3E4"/>
<path d="M169.887 63.6396C174.58 53.2435 180.231 46.8595 189.071 41.9703C194.33 39.0602 193.124 40.5809 185.888 45.9827C178.301 51.6465 174.246 56.9586 170.501 66.1384C167.888 72.5435 166.482 79.9144 166.875 85.1444C167.184 89.2589 165.753 89.4526 165.23 85.3673C164.517 79.7977 166.257 71.6797 169.887 63.6396Z" fill="#FFF3E4"/>
<path d="M264.822 51.7771C278.492 60.8194 289.157 66.0448 297.755 67.9121C303.765 69.2178 307.54 69.2758 307.268 68.0594C307.201 67.7661 304.405 67.1226 301.052 66.6289C292.239 65.3315 280.576 59.8169 264.971 49.5693C245.887 37.0367 232.129 31.4828 221.467 32.0063C219.502 32.103 220.508 32.4999 224.744 33.3C238.686 35.9325 245.883 39.2501 264.822 51.7771Z" fill="#FFF3E4"/>
<path d="M353.51 59.9007C355.198 62.5915 355.005 67.6417 353.107 70.4397C350.642 74.0725 345.998 76.0013 341.648 75.1986C332.935 73.5909 334.235 61.0151 343.488 57.4101C346.305 56.3126 352.173 57.7707 353.51 59.9007Z" fill="#FFF3E4"/>
<path d="M206.366 76.377C200.42 79.8025 192.937 83.8796 189.736 85.4367C181.67 89.3617 176.617 89.5619 173.546 86.0787C170.136 82.2125 170.149 76.5701 173.584 68.6082C179.41 55.1041 194.34 43.5322 208.43 41.6014C216.719 40.4651 235.857 43.3348 241.227 46.5191C245.344 48.9598 246.534 53.2714 244.205 57.3025C242.15 60.8594 238.906 62.6428 227.022 66.7476C221.607 68.6182 212.312 72.9515 206.366 76.377Z" fill="#FFF3E4"/>
<path d="M318.341 69.9146C318.341 69.0155 316.527 68.2867 315.628 68.2867C314.729 68.2867 314 69.0155 314 69.9146C314 70.8137 314.729 70.9999 315.628 70.9999C316.527 70.9999 318.341 70.8137 318.341 69.9146Z" fill="#FFF3E4"/>
<path d="M95.777 128.735C103.751 125.674 115.795 117.774 118.762 113.659C120.077 111.836 120.627 110.365 119.986 110.391C119.345 110.418 118.834 110.771 118.851 111.176C118.944 113.458 104.555 123.062 95.6192 126.682C89.2476 129.264 79.0804 130.239 72.359 128.914C68.6863 128.19 67.373 128.162 67.7081 128.814C69.5684 132.444 86.2354 132.397 95.777 128.735Z" fill="#FFF3E4"/>
<path d="M1.84913 130.47C1.73044 131.83 3.08991 135.334 4.86958 138.255C8.92314 144.91 15.0838 148.455 24.4493 149.524C31.6043 150.339 64.1003 144.14 65.7258 141.649C66.237 140.865 66.0767 138.902 65.3702 137.288C64.2454 134.718 63.1707 133.952 56.7476 131.139C39.1955 123.451 17.6351 118.932 9.79872 121.297C5.34632 122.642 2.21559 126.254 1.84913 130.47Z" fill="#FFF3E4"/>
<circle cx="1.62796" cy="1.62796" r="1.62796" transform="matrix(1 0 0 -1 122 108)" fill="#FFF3E4"/>
</svg>
